PathFileType	4	(X/Y/Z)	C:/Users/beibeiliu/ov580/test_trc/User1\sequence.30_training_dense_left.trc
DataRate	CameraRate	NumFrames	NumMarkers	Units	OrigDataRate	OrigDataStartFrame	OrigNumFrames
120	120	23	19	mm	120	199	227
Frame#	Time	ThumbCMC			ThumbMCP			ThumbIP			ThumbTip			IndexMCP			IndexPIP			IndexTip			MiddleMCP			MiddlePIP			MiddleTip			RingMCP			RingPIP			RingTip			PinkyMCP			PinkyPIP			PinkyTip			BackHand1			BackHand2			BackHand3	
		X0	Y0	Z0	X1	Y1	Z1	X2	Y2	Z2	X3	Y3	Z3	X4	Y4	Z4	X5	Y5	Z5	X6	Y6	Z6	X7	Y7	Z7	X8	Y8	Z8	X9	Y9	Z9	X10	Y10	Z10	X11	Y11	Z11	X12	Y12	Z12	X13	Y13	Z13	X14	Y14	Z14	X15	Y15	Z15	X16	Y16	Z16	X17	Y17	Z17	X18	Y18	Z18	
198	1.65	-55.3835	-36.4576	73.2626	-56.784	-65.9864	63.9488	-48.8363	-89.5667	56.5691	-41.0028	-112.67	49.8517	-54.8081	-29.6972	-14.1842	-50.3809	-35.8333	-41.5692	-54.9628	-37.6217	-67.1228	-76.8816	-6.02958	-29.128	-74.9632	-5.40257	-55.9705	-70.4426	-3.37271	-82.9455	-102.607	2.52787	-20.6902	-102.506	5.58644	-49.5023	-100.334	5.44086	-70.8686	-133.96	0.828143	-2.35344	-145.74	2.1818	-18.8267	-153.187	11.188	-37.0593	-100.106	11.5452	26.9733	-100.999	19.9719	61.9971	-69.5076	1.35865	51.3826	
199	1.65833	-59.4402	-36.9114	67.8028	-57.7016	-68.5389	60.1226	-50.3152	-94.895	50.2384	-47.66	-113.709	47.1658	-55.962	-28.0568	-17.6602	-53.1391	-33.8867	-41.4366	-51.9826	-37.3075	-67.1259	-73.8907	-6.71716	-27.151	-74.287	-5.9417	-51.2824	-73.0299	-0.734002	-78.7567	-99.8462	1.06744	-20.7827	-99.604	3.58448	-46.9347	-100.877	7.36884	-72.4519	-137.414	0.713238	-6.64995	-143.517	0.287645	-19.3756	-155.035	8.53921	-37.4225	-97.3183	8.15799	28.7335	-101.211	20.6748	62.1655	-65.2695	-1.22439	48.1902	
200	1.66667	-58.4677	-39.2939	67.3378	-58.8229	-70.8903	59.2374	-53.4611	-96.4351	49.5327	-53.4882	-115.75	40.3855	-55.7341	-27.841	-18.5558	-51.4105	-33.3728	-39.8657	-50.0793	-36.7451	-66.9645	-77.6676	-5.36414	-22.871	-69.6389	-5.08267	-53.7147	-72.9247	0.717935	-79.4453	-98.1163	-0.204026	-18.1596	-100.001	4.7676	-44.5979	-98.3803	6.89174	-71.461	-133.117	-0.615332	-4.07643	-144.572	-0.148116	-20.3664	-155.614	10.0023	-40.2739	-100.149	9.86678	32.3794	-102.453	20.9653	63.3139	-70.3106	1.45248	52.0308	
201	1.675	-58.3301	-42.2904	67.0691	-59.498	-74.0184	63.0923	-57.7351	-95.4279	48.9825	-58.0817	-117.312	39.7827	-57.2183	-28.8394	-15.7476	-52.6049	-32.8425	-44.4908	-52.0931	-35.7161	-65.522	-73.3396	-7.10737	-24.2444	-70.7719	-5.06346	-54.2551	-70.2329	1.67087	-78.4423	-101.446	2.73437	-21.7527	-101.541	6.17204	-48.5211	-100.308	9.98072	-73.3233	-135.474	-0.204641	-4.85686	-147.951	1.08503	-22.4601	-155.366	7.03549	-40.0916	-99.0404	8.88402	28.1031	-99.1574	18.6204	64.9103	-68.3579	-0.248953	52.3234	
202	1.68333	-60.2976	-42.2146	70.3113	-65.5503	-72.8087	54.0907	-62.6729	-96.2956	43.1887	-61.6267	-119.724	36.9981	-54.3166	-30.1022	-13.0158	-49.324	-32.8202	-42.3563	-52.772	-33.5294	-65.8652	-72.9571	-7.64434	-22.216	-67.8457	-4.09408	-53.1348	-71.554	3.71833	-76.8441	-96.8708	0.016316	-20.5992	-97.1393	4.26877	-44.2913	-98.6517	7.97199	-69.2896	-135.193	-1.14142	-7.48437	-144.455	0.414057	-19.3015	-154.528	8.2887	-39.8603	-97.0418	6.50207	28.7333	-97.0134	18.6784	62.5416	-68.818	-3.2982	48.0357	
203	1.69167	-60.2119	-45.0187	65.5988	-66.8084	-77.5632	53.1423	-65.0976	-99.9793	40.2835	-67.3012	-117.497	30.6906	-55.9306	-28.6777	-15.242	-49.2072	-32.6135	-39.254	-51.7835	-32.2959	-66.2586	-74.1182	-7.24586	-22.3969	-68.2771	-4.17157	-51.2873	-66.4837	2.02049	-77.4754	-100.789	1.80759	-19.8991	-97.3544	6.00855	-49.608	-99.4236	13.0046	-72.221	-132.705	-0.994698	-3.37397	-145.369	0.739644	-22.4948	-152.494	6.57144	-40.4223	-99.6023	8.01811	28.0252	-101.36	20.6125	63.0165	-66.2342	-5.37905	48.9816	
204	1.7	-63.7587	-43.792	63.719	-70.1772	-76.8256	50.7587	-72.3543	-96.0314	38.2163	-72.1261	-119.929	24.639	-51.9406	-31.5904	-18.7826	-52.871	-31.3952	-43.9995	-50.6716	-32.3529	-69.6323	-75.6515	-5.65794	-23.9636	-70.6281	-3.09153	-49.0646	-70.3171	4.87108	-77.1308	-97.5912	0.49465	-20.2642	-97.44	6.72151	-49.5247	-99.4065	11.5725	-68.9131	-132.895	-0.472767	-3.73895	-145.089	0.403979	-21.1636	-155.04	8.42585	-39.3964	-95.8527	6.54524	30.0856	-97.1823	16.6426	62.6621	-67.0638	-3.64366	49.8248	
205	1.70833	-62.2242	-48.6359	63.3205	-73.9177	-76.4624	50.8315	-75.4616	-97.6799	29.465	-76.5926	-118.841	20.8263	-54.5848	-31.5781	-15.4063	-48.6785	-35.3046	-43.3455	-50.6448	-33.1794	-67.6191	-71.571	-7.63137	-23.9178	-70.715	-2.40366	-50.5995	-67.3598	4.77346	-79.2102	-99.3949	3.35707	-23.06	-98.1327	8.39283	-48.8024	-95.0153	9.80183	-68.4225	-132.627	-0.480609	-9.00193	-144.773	-0.193767	-21.6196	-150.036	7.24458	-40.8787	-94.385	7.7033	29.6503	-100.609	18.0498	62.4015	-68.1774	-4.14532	49.4292	
206	1.71667	-64.8107	-48.6928	61.8683	-76.5146	-77.0397	46.3473	-80.1365	-94.8801	25.5174	-81.6994	-117.595	10.4471	-56.0059	-31.4792	-17.2344	-49.0565	-36.3286	-45.1098	-48.4532	-35.2097	-67.8295	-70.5997	-9.01708	-25.6123	-70.4915	-3.27997	-51.8672	-64.7885	1.40323	-77.8996	-98.6893	1.88814	-19.8358	-95.3008	6.63594	-47.0277	-96.764	12.1719	-71.9475	-130.978	-1.64074	-3.8294	-143.016	-0.815171	-22.9763	-150.793	7.65609	-45.8661	-93.201	6.34552	29.881	-98.9129	17.8469	64.7192	-65.5526	-8.14034	48.086	
207	1.725	-65.9654	-48.5403	64.9572	-77.4235	-78.5761	45.8708	-80.6988	-95.3522	21.7006	-86.0974	-113.714	7.52578	-52.978	-34.6169	-17.5236	-48.6717	-39.048	-41.0465	-49.2004	-38.5091	-65.2727	-71.6894	-10.0861	-25.5359	-68.745	-6.57991	-49.9418	-64.845	1.35793	-77.5012	-93.9332	-2.14578	-20.9229	-97.6027	5.47259	-44.8806	-94.4186	7.56492	-68.6012	-134.109	-1.6841	-4.63122	-144.332	-0.271479	-20.8609	-154.051	4.98349	-42.9675	-93.7706	4.25297	32.2147	-96.3572	15.9206	62.7611	-67.0477	-7.93987	53.0611	
208	1.73333	-66.8731	-49.2536	66.8841	-78.0443	-75.9491	42.3708	-82.7694	-94.3951	19.1271	-92.3912	-109.023	-1.01346	-54.4563	-34.4044	-17.4343	-46.4599	-40.3851	-41.8607	-48.557	-39.7881	-65.135	-72.0304	-10.2012	-23.1727	-67.1962	-8.90349	-50.7658	-64.1602	1.4994	-79.535	-97.7661	0.365891	-19.1407	-92.8605	2.78703	-48.4669	-93.1983	8.83394	-71.5684	-129.559	-3.02931	-7.0637	-143.194	-2.79992	-24.9412	-149.546	3.11828	-41.1711	-95.138	3.95359	34.3342	-98.668	14.9861	64.8392	-68.7014	-7.2633	51.956	
209	1.74167	-67.0275	-48.8671	66.2046	-77.208	-77.4169	44.8778	-85.1199	-91.3144	14.6212	-96.1629	-102	-2.41806	-53.1843	-35.3763	-13.8082	-49.6538	-40.5318	-41.3567	-49.7926	-40.4226	-67.5268	-73.1032	-9.65624	-24.0246	-67.1612	-7.65933	-51.9072	-59.4991	-2.41815	-77.5815	-94.6419	-2.01867	-18.8099	-92.1699	2.38446	-45.2393	-91.8155	7.45578	-71.7765	-132.583	-3.53644	-5.63781	-144.619	-2.68312	-22.5344	-151.735	2.25254	-46.2654	-95.8364	5.424	32.7786	-95.5883	12.4793	61.4184	-68.1707	-5.73164	53.2066	
210	1.75	-65.2221	-48.2491	62.9676	-77.4336	-77.6129	42.5492	-87.6269	-87.526	15.575	-101.601	-98.5368	-5.89691	-49.0585	-37.5664	-17.0994	-45.4791	-43.0867	-42.9446	-49.2516	-42.9609	-65.9759	-71.049	-11.1366	-26.4155	-66.2862	-11.2247	-48.662	-61.3886	-0.940329	-79.7443	-97.4182	-1.28815	-21.0419	-92.4977	0.414291	-44.8945	-91.7718	5.30483	-70.4728	-132.958	-2.64927	-4.76169	-143.729	-3.83599	-23.7703	-148.753	0.672851	-46.4589	-93.9202	5.75277	34.7123	-99.7445	13.5789	66.4255	-66.5606	-8.05534	49.6233	
211	1.75833	-67.5856	-47.4614	64.2133	-77.4072	-76.6516	38.4614	-89.2561	-88.6455	12.7631	-106.258	-92.1462	-3.45422	-48.6201	-38.1894	-17.6932	-48.1023	-42.4975	-41.2252	-48.4357	-44.8403	-69.4795	-72.6463	-10.6646	-24.9771	-66.8064	-11.246	-48.7038	-62.1216	-1.78424	-79.4003	-96.9363	-0.52037	-24.0298	-92.9889	2.88638	-48.2611	-91.484	6.53774	-73.3262	-133.081	-4.26838	-9.20867	-141.629	-6.23828	-23.0373	-147.381	-0.806158	-45.2734	-97.2799	6.55189	30.5675	-100.242	13.5156	61.892	-64.1069	-8.09008	50.6479	
212	1.76667	-63.5249	-50.7403	64.2629	-74.0086	-81.8115	41.3464	-89.3628	-86.5018	11.766	-109.456	-87.0347	-4.20088	-50.6305	-38.4397	-17.7675	-47.2626	-43.651	-40.896	-47.1812	-47.9832	-67.3784	-69.3488	-14.4599	-23.1586	-69.0107	-10.4082	-51.2879	-60.0722	-5.19529	-78.3868	-95.879	-2.36853	-21.4075	-92.7202	0.957705	-49.6525	-92.36	4.36123	-69.7477	-130.266	-5.97446	-5.29772	-141.896	-6.64294	-24.0119	-151.745	-2.66485	-43.491	-99.0361	5.33116	32.2448	-100.617	14.4402	64.66	-70.5399	-8.00255	48.9693	
213	1.775	-67.3535	-46.1558	65.3601	-73.6372	-81.3533	39.809	-88.156	-83.123	11.818	-110.815	-83.6292	-9.5053	-52.0549	-37.1958	-20.6579	-47.6522	-43.9925	-42.153	-51.7539	-46.2174	-66.227	-70.7027	-12.4377	-29.3236	-67.1254	-11.444	-49.7998	-63.9163	-4.15983	-77.4174	-97.3818	-1.73209	-21.7689	-93.2776	1.60675	-48.3256	-90.947	3.61082	-69.5384	-131.464	-6.91047	-8.53929	-141.45	-7.92574	-27.3981	-151.743	-1.64019	-48.1298	-99.6906	5.58233	30.6598	-102.177	12.7759	62.9531	-68.1349	-8.97916	52.1438	
214	1.78333	-66.353	-46.5565	64.3267	-73.679	-77.1959	35.9433	-88.3735	-81.5917	9.68163	-108.642	-81.7845	-5.89666	-51.1243	-36.9675	-20.0489	-51.0123	-42.8663	-43.1611	-49.5945	-49.1356	-69.7159	-70.9969	-12.1381	-25.5409	-63.4131	-12.0302	-54.0632	-59.6077	-5.52434	-79.8886	-98.7774	-1.48	-22.3504	-95.8152	2.41869	-46.4091	-93.6371	5.77538	-73.1418	-132.617	-6.22746	-8.81915	-144.456	-7.93255	-28.5419	-153.725	-2.67906	-50.0772	-96.7888	5.83844	28.5589	-100.501	11.7979	62.2508	-69.2122	-5.30582	49.6725	
215	1.79167	-67.7392	-46.1668	61.5602	-73.1974	-76.7174	36.5848	-87.994	-81.7885	9.67588	-107.819	-81.7551	-5.74794	-53.8694	-35.5902	-16.2555	-51.1965	-42.3029	-41.75	-51.7737	-48.4491	-66.606	-72.5619	-10.9473	-29.2566	-66.3938	-12.0171	-51.0536	-60.0136	-4.1132	-81.6287	-95.6201	-1.6703	-26.4665	-97.5447	2.90989	-47.8316	-92.1453	4.58088	-71.1535	-134.807	-5.98091	-10.5483	-142.325	-8.05829	-26.6114	-151.509	-3.89447	-50.575	-99.4549	4.84647	28.9507	-98.4626	13.0063	63.704	-67.7718	-6.15862	47.0538	
216	1.8	-68.4184	-45.3689	65.7274	-74.4039	-75.66	34.4159	-86.9852	-82.3477	10.1979	-108.649	-78.5604	-8.77697	-52.0856	-35.7879	-17.4443	-49.8344	-43.552	-45.4295	-49.3717	-48.5991	-66.9543	-69.358	-12.8085	-25.661	-63.914	-10.8396	-53.8863	-63.1025	-3.74053	-81.6819	-96.8459	-3.00296	-21.7379	-96.6643	2.13931	-49.302	-91.6554	5.25368	-73.5048	-131.418	-6.70697	-11.6091	-141.636	-8.84226	-26.3509	-149.614	-5.79345	-50.9923	-95.4444	4.39457	29.0954	-102.317	12.9406	60.3183	-69.6756	-6.53482	48.2857	
217	1.80833	-65.2093	-48.2276	61.756	-73.8249	-76.029	34.1895	-86.7317	-82.1228	11.6427	-107.065	-78.9025	-7.81773	-51.0832	-36.7504	-18.6661	-50.5154	-42.1635	-40.9938	-48.0163	-50.1652	-66.8287	-69.7978	-11.2203	-30.388	-64.8501	-11.2703	-52.7917	-62.0404	-4.47344	-80.2726	-96.754	-2.62002	-25.5185	-97.669	2.54752	-48.1945	-90.6164	5.51422	-74.9163	-131.669	-7.45571	-8.58214	-145.055	-8.37735	-25.183	-152.022	-8.44058	-51.7764	-95.7025	4.9668	29.0405	-102.198	11.9535	62.4179	-70.0894	-6.24403	48.3488	
218	1.81667	-66.4935	-47.582	61.7382	-73.177	-76.3077	37.6984	-84.2652	-82.4148	9.82271	-104.521	-83.9817	-10.3923	-52.8287	-35.2938	-17.335	-51.3155	-41.3731	-41.3599	-48.5925	-48.9573	-67.7771	-71.6251	-9.37479	-29.2051	-68.1664	-10.2106	-51.9358	-62.5126	-4.54951	-82.3308	-98.2589	-1.68518	-22.2364	-94.11	2.29092	-50.0245	-94.0475	5.23995	-71.7035	-133.351	-5.58963	-6.47079	-141.773	-9.26094	-29.103	-150.946	-7.06541	-52.5212	-96.6579	5.13159	30.0903	-102.052	14.397	61.1005	-69.8927	-4.51923	50.9179	
219	1.825	-67.4831	-46.7715	62.8627	-71.1675	-77.3405	39.2319	-80.0822	-85.1757	8.25362	-96.6305	-90.5875	-7.78255	-52.6867	-33.5301	-16.5689	-51.9462	-38.2741	-42.3996	-49.4223	-46.9063	-71.378	-72.2012	-9.7347	-26.3591	-69.3656	-7.50555	-52.0763	-64.3802	-2.88687	-81.0746	-97.7538	-0.202444	-26.2121	-94.1399	1.93231	-47.3789	-93.1035	8.19801	-73.4023	-130.52	-5.97441	-9.32769	-143.881	-6.88687	-25.3204	-148.891	-7.28139	-49.5324	-98.4731	4.74458	29.6382	-99.355	14.1555	62.0299	-70.7228	-5.68952	48.1762	
220	1.83333	-65.2531	-47.6574	64.0756	-68.7528	-76.7699	40.7571	-73.5621	-90.8126	15.1149	-86.4641	-97.336	-7.09979	-54.1929	-31.4669	-17.5474	-50.3582	-37.3472	-45.05	-48.9656	-42.157	-68.0043	-70.2497	-9.64772	-24.7851	-65.1123	-7.31787	-52.7455	-60.8067	-1.97407	-83.0147	-97.921	1.84662	-26.1038	-97.9062	5.27359	-48.1093	-94.789	8.06561	-71.7835	-135.647	-3.00567	-11.5826	-143.097	-4.88337	-25.8324	-149.718	-5.79971	-52.0889	-100.765	6.61054	28.2757	-99.1413	11.0303	60.9552	-68.4128	-6.95775	48.2067	
